# AST/ASF file generated using VICON BodyLanguage
# -----------------------------------------------
:version 1.10
:name VICON
:units
  mass 1.0
  length 0.45
  angle deg
:documentation
   .ast/.asf automatically generated from VICON data using
   VICON BodyBuilder and BodyLanguage model FoxedUp or BRILLIANT.MOD
:root
   order TX TY TZ RX RY RZ
   axis XYZ
   position 0 0 0  
   orientation 0 -0 0 
:bonedata
  begin
     id 1 
     name lhipjoint
     direction 0.515797 -0.759363 0.396637 
     length 2.47888 
     axis 0 -0 0  XYZ
  end
  begin
     id 2 
     name lfemur
     direction 0.34202 -0.939693 0  
     length 6.81885  
     axis 0 -0 20  XYZ
    dof rx ry rz
    limits (-160.0 20.0)
           (-70.0 70.0)
           (-60.0 70.0)
  end
  begin
     id 3 
     name ltibia
     direction 0.342037 -0.939687 0   
     length 7.89258   
     axis 0 -0 20   XYZ
    dof rx
    limits (-10.0 170.0)
  end
  begin
     id 4 
     name lfoot
     direction 0.173497 -0.476678 0.861787   
     length 2.51543   
     axis -90 -1.13533e-015 20   XYZ
    dof rx rz
    limits (-45.0 90.0)
           (-70.0 20.0)
  end
  begin
     id 5 
     name ltoes
     direction 1.53564e-011 -4.21897e-011 1   
     length 1.21388   
     axis -90 -1.13533e-015 20   XYZ
    dof rx
    limits (-90.0 20.0)
  end
  begin
     id 6 
     name rhipjoint
     direction -0.489454 -0.772941 0.403729   
     length 2.43534  
     axis 0 -0 0  XYZ 
  end
  begin
     id 7 
     name rfemur
     direction -0.34202 -0.939693 0   
     length 7.10357   
     axis 0 -0 -20   XYZ
    dof rx ry rz
    limits (-160.0 20.0)
           (-70.0 70.0)
           (-70.0 60.0)
  end
  begin
     id 8 
     name rtibia
     direction -0.34202 -0.939693 0   
     length 9.16127   
     axis 0 -0 -20   XYZ
    dof rx
    limits (-10.0 170.0)
 end
 begin
     id 9 
     name rfoot
     direction -0.270974 -0.748671 0.605033   
     length 1.74894  
     axis -90 1.13533e-015 -20   XYZ
    dof rx rz
    limits (-45.0 90.0)
           (-20.0 70.0)
  end
  begin
     id 10 
     name rtoes
     direction -1.53557e-011 -4.21759e-011 1   
     length 0.787585   
     axis -90 1.13533e-015 -20   XYZ
    dof rx
    limits (-90.0 20.0)
  end
  begin
     id 11 
     name lowerback
     direction -0.0140249 0.999561 0.0260968   
     length 2.16963   
     axis 0 -0 0   XYZ
    dof rx ry rz
    limits (-20.0 45.0)
           (-30.0 30.0)
           (-30.0 30.0)
  end
  begin
     id 12 
     name upperback
     direction 0.00860018 0.999959 -0.002711   
     length 2.1726   
     axis 0 -0 0   XYZ
    dof rx ry rz
    limits (-20.0 45.0)
           (-30.0 30.0)
           (-30.0 30.0)
  end
  begin
     id 13 
     name thorax
     direction 0.015211 0.999782 -0.0143191   
     length 2.17061   
     axis 0 -0 0   XYZ
    dof rx ry rz
    limits (-20.0 45.0)
           (-30.0 30.0)
           (-30.0 30.0)
  end
  begin
     id 14 
     name lowerneck
     direction -0.0140143 0.999447 0.030145   
     length 2.26749   
     axis 0 -0 0   XYZ
    dof rx ry rz
    limits (-20.0 45.0)
           (-30.0 30.0)
           (-30.0 30.0)
  end
  begin
     id 15 
     name upperneck
     direction 0.118062 0.961438 -0.248392   
     length 2.22728   
     axis 0 -0 0   XYZ
    dof rx ry rz
    limits (-20.0 45.0)
           (-30.0 30.0)
           (-30.0 30.0)
  end
  begin
     id 16
     name head
     direction 0.0431885 0.9954 -0.085514  
     length 2.28786  
     axis 0 -0 0   XYZ
    dof rx ry rz
    limits (-20.0 45.0)
           (-30.0 30.0)
           (-30.0 30.0)
  end
  begin
     id 17 
     name lclavicle
     direction 0.912126 0.409548 0.0172323  
     length 4.31571  
     axis 0 -0 0   XYZ
    dof ry rz
    limits (-20.0 10.0)
           (0.0 20.0)
  end
  begin
     id 18 
     name lhumerus
     direction 1 -4.48977e-011 1.93091e-027   
     length 5.13658   
     axis 180 -30 -90   XYZ
    dof rx ry rz
    limits (-60.0 90.0)
           (-90.0 90.0)
           (-90.0 90.0)
  end
  begin
     id 19
     name lradius
     direction 1 -4.48916e-011 6.84018e-027   
     length 3.22473   
     axis 180 -30 -90   XYZ
    dof rx
    limits (-10.0 170.0)
  end
  begin
     id 20
     name lwrist
     direction 1 -4.48987e-011 7.01981e-027   
     length 1.61236   
     axis -4.37994e-015 90 90   XYZ
    dof ry
    limits (-180.0 0.0)
 end
  begin
     id 21 
     name lhand
     direction 1 -4.49037e-011 1.40335e-026   
     length 0.936406   
     axis -8.96029e-015 90 90   XYZ
    dof rx rz
    limits (-90.0 90.0)
           (-45.0 45.0)
  end
  begin
     id 22 
     name lfingers
     direction 1 -4.48886e-011 2.8104e-026   
     length 0.754955   
     axis -1.79203e-014 90 90   XYZ
    dof rx
    limits (0.0 90.0)
  end
  begin
     id 23
     name lthumb
     direction 0.707107 -6.34937e-011 0.707107   
     length 1.08397   
     axis -90 45 -4.48555e-014   XYZ
    dof rx rz
    limits (-45.0 45.0)
           (-45.0 45.0)
  end
  begin
     id 24 
     name rclavicle
     direction -0.947962 0.317997 0.0156638   
     length 4.86918  
     axis 0 -0 0   XYZ 
    dof ry rz
    limits (-10.0 20.0)
           (-20.0 0.0)
  end
  begin
     id 25 
     name rhumerus
     direction -1 -4.48951e-011 2.80534e-018  
     length 5.60911   
     axis 180 30 90   XYZ
    dof rx ry rz
    limits (-90.0 60.0)
           (-90.0 90.0)
           (-90.0 90.0)
  end
  begin
     id 26 
     name rradius
     direction -1 -4.4898e-011 2.11315e-027   
     length 3.38704   
     axis 180 30 90   XYZ
    dof rx
    limits (-10.0 170.0)
  end
  begin
     id 27 
     name rwrist
     direction -1 -4.48933e-011 7.02314e-027   
     length 1.69352   
     axis -4.37994e-015 -90 -90   XYZ
    dof ry
    limits (-180.0 0.0)
  end
  begin
     id 28
     name rhand
     direction -1 -4.48937e-011 1.40458e-026   
     length 0.755878   
     axis -8.96029e-015 -90 -90   XYZ
    dof rx rz
    limits (-90.0 90.0)
           (-45.0 45.0)
  end
  begin
     id 29
     name rfingers
     direction -1 -4.4901e-011 2.80737e-026   
     length 0.609409   
     axis -1.79203e-014 -90 -90   XYZ
    dof rx
    limits (0.0 90.0)
  end
  begin
     id 30
     name rthumb
     direction -0.707107 -6.34968e-011 0.707107   
     length 0.874992   
     axis -90 -45 4.48555e-014   XYZ
    dof rx rz
    limits (-45.0 45.0)
           (-45.0 45.0)
  end
:hierarchy
  begin
    root lhipjoint rhipjoint lowerback
    lhipjoint lfemur
    lfemur ltibia
    ltibia lfoot
    lfoot ltoes
    rhipjoint rfemur
    rfemur rtibia
    rtibia rfoot
    rfoot rtoes
    lowerback upperback
    upperback thorax
    thorax lowerneck lclavicle rclavicle
    lowerneck upperneck
    upperneck head
    lclavicle lhumerus
    lhumerus lradius
    lradius lwrist
    lwrist lhand lthumb
    lhand lfingers
    rclavicle rhumerus
    rhumerus rradius
    rradius rwrist
    rwrist rhand rthumb
    rhand rfingers
  end

#!OML:ASF C:\ViconDB\ViconDB\414\Spring2016\041811\Spring2016.ASF
:FULLY-SPECIFIED
:DEGREES
62
root 6.75903 17.0346 27.0325 -164.983 7.25252 -176.344
lowerback 14.2602 6.26429 -0.737434
upperback 3.09857 8.64385 1.54952
thorax -4.9931 4.42158 0.427179
lowerneck -10.9649 -6.35035 -14.1708
upperneck 15.3384 -10.3494 18.5663
head 8.28428 -4.54922 7.4934
rclavicle 1.59028e-014 -3.97569e-015
rhumerus -23.0865 10.2921 -72.3705
rradius 129.083
rwrist 0.0160318
rhand -35.1366 -12.7582
rfingers 7.12502
rthumb -8.27663 -42.576
lclavicle 1.59028e-014 -3.97569e-015
lhumerus -94.9078 -21.6985 98.1172
lradius 74.8146
lwrist -8.18765
lhand -31.3607 11.6922
lfingers 7.12502
lthumb -4.63147 41.6216
rfemur 10.6348 -2.1102 20.5835
rtibia 26.1748
rfoot -149.082 8.75842
rtoes -13.7035
lfemur -64.4673 5.76843 -18.7803
ltibia 78.9488
lfoot -16.6272 -4.23811
ltoes -12.0284
63
root 6.76041 17.1265 26.6272 -164.856 7.06359 -176.428
lowerback 13.7379 6.25374 -0.995802
upperback 2.95256 8.56216 1.45437
thorax -4.88425 4.37534 0.534976
lowerneck -11.2505 -6.56611 -14.1903
upperneck 15.2027 -10.548 18.4838
head 8.32793 -4.62764 7.42903
rclavicle 6.2816e-014 6.36111e-015
rhumerus -23.2016 11.8669 -71.9352
rradius 130.684
rwrist -0.984943
rhand -35.2239 -12.752
rfingers 7.12502
rthumb -8.36086 -42.5665
lclavicle 6.2816e-014 6.36111e-015
lhumerus -94.7649 -21.257 97.5277
lradius 75.9938
lwrist -6.57952
lhand -32.2881 10.7477
lfingers 7.12502
lthumb -5.52687 40.6556
rfemur 11.4821 -2.44236 20.2977
rtibia 25.4415
rfoot -145.938 5.51755
rtoes -17.3649
lfemur -63.7794 5.65762 -19.0219
ltibia 76.3571
lfoot -16.3399 -4.40386
ltoes -11.4523
64
root 6.76137 17.2074 26.224 -164.706 6.81842 -176.27
lowerback 13.2293 6.16239 -0.794472
upperback 2.85953 8.43526 1.16192
thorax -4.62942 4.30322 0.202966
lowerneck -11.7758 -6.69736 -13.8131
upperneck 15.0318 -10.7172 18.5485
head 8.3868 -4.6548 7.34534
rclavicle -2.34566e-014 7.15625e-015
rhumerus -23.3573 13.2527 -72.3702
rradius 131.78
rwrist -0.584923
rhand -35.4002 -13.8093
rfingers 7.12502
rthumb -8.53098 -43.617
lclavicle -2.34566e-014 7.15625e-015
lhumerus -93.9001 -21.074 96.4075
lradius 76.8468
lwrist -6.30314
lhand -32.724 10.7059
lfingers 7.12502
lthumb -5.94777 40.6024
rfemur 11.8627 -2.46311 20.4244
rtibia 25.4131
rfoot -143.506 2.20816
rtoes -20.5929
lfemur -62.8586 5.8588 -19.0892
ltibia 73.8857
lfoot -15.5071 -4.77572
ltoes -11.9042
65
root 6.76278 17.2834 25.8179 -164.603 6.58317 -176.127
lowerback 12.9046 6.09031 -0.795047
upperback 2.60857 8.30834 1.08831
thorax -4.70365 4.22848 0.169978
lowerneck -11.9644 -6.82916 -13.8969
upperneck 14.9825 -10.8618 18.6063
head 8.44197 -4.71278 7.35496
rclavicle 1.94809e-014 2.54444e-014
rhumerus -24.1368 14.6701 -72.7456
rradius 132.735
rwrist -1.44283
rhand -35.1902 -13.3153
rfingers 7.12502
rthumb -8.32835 -43.1312
lclavicle 1.94809e-014 2.54444e-014
lhumerus -92.8421 -20.357 95.5279
lradius 77.4021
lwrist -6.45383
lhand -33.0351 10.9411
lfingers 7.12502
lthumb -6.2481 40.8289
rfemur 11.9061 -2.14009 20.7014
rtibia 26.0804
rfoot -141.898 -0.864486
rtoes -23.071
lfemur -61.7215 6.03402 -19.149
ltibia 71.6796
lfoot -14.43 -5.0821
ltoes -11.2304
66
root 6.75552 17.3391 25.4184 -164.326 6.21547 -176.114
lowerback 12.4387 5.91426 -0.667946
upperback 2.28258 8.0428 0.847294
thorax -4.73502 4.07916 -0.0696412
lowerneck -12.0974 -6.91929 -13.9298
upperneck 14.8908 -11.0082 18.828
head 8.48158 -4.76662 7.41466
rclavicle -8.28932e-014 2.90226e-014
rhumerus -25.3769 15.9701 -73.8929
rradius 132.921
rwrist -0.441399
rhand -35.1936 -12.9611
rfingers 7.12502
rthumb -8.33165 -42.7768
lclavicle -8.28932e-014 2.90226e-014
lhumerus -91.6616 -19.6898 94.7333
lradius 77.7994
lwrist -6.75274
lhand -33.7616 11.5328
lfingers 7.12502
lthumb -6.94946 41.3987
rfemur 11.3825 -2.41062 20.6679
rtibia 27.5125
rfoot -140.551 -3.28157
rtoes -24.8773
lfemur -60.6049 6.09957 -19.466
ltibia 69.6961
lfoot -13.1404 -5.12659
ltoes -11.4394
67
root 6.75259 17.3849 25.011 -164.295 5.90169 -175.857
lowerback 12.0161 5.68253 -0.465199
upperback 2.16236 7.74683 0.81516
thorax -4.59521 3.92628 -0.1245
lowerneck -12.4306 -6.94604 -13.8665
upperneck 14.8515 -10.9677 18.7177
head 8.51313 -4.73021 7.36081
rclavicle -1.90833e-014 -5.56597e-015
rhumerus -26.7002 17.2445 -75.0855
rradius 132.782
rwrist 0.224043
rhand -35.1506 -12.5725
rfingers 7.12502
rthumb -8.29013 -42.3899
lclavicle -1.90833e-014 -5.56597e-015
lhumerus -90.087 -18.7029 94.1442
lradius 78.4311
lwrist -6.04135
lhand -34.3955 12.5429
lfingers 7.12502
lthumb -7.56135 42.3877
rfemur 10.8058 -2.15826 21.1229
rtibia 29.5885
rfoot -140.362 -5.54997
rtoes -25.837
lfemur -59.0899 6.39796 -19.3169
ltibia 68.129
lfoot -12.159 -5.17798
ltoes -10.9148
68
root 6.75882 17.4087 24.6206 -164.478 5.69266 -175.557
lowerback 12.0458 5.54949 -0.439544
upperback 1.99136 7.56489 0.860095
thorax -4.7924 3.82997 -0.077401
lowerneck -12.6282 -6.99372 -13.9196
upperneck 14.8284 -10.9689 18.6569
head 8.54208 -4.72473 7.34298
rclavicle -1.05356e-014 -5.56597e-015
rhumerus -28.2424 17.8728 -76.5481
rradius 132.153
rwrist 1.11754
rhand -34.4579 -11.6955
rfingers 7.12502
rthumb -7.62156 -41.5382
lclavicle -1.05356e-014 -5.56597e-015
lhumerus -88.469 -17.8933 93.8592
lradius 79.0011
lwrist -4.96363
lhand -34.8723 13.1931
lfingers 7.12502
lthumb -8.02155 43.0209
rfemur 10.1051 -1.69845 21.7008
rtibia 32.2704
rfoot -140.392 -7.54446
rtoes -27.5415
lfemur -57.2181 6.79786 -19.1271
ltibia 66.936
lfoot -10.9511 -4.79551
ltoes -9.40321
69
root 6.75886 17.4029 24.2269 -164.474 5.37566 -175.035
lowerback 11.6917 5.31567 0.0456364
upperback 1.85657 7.30394 0.847988
thorax -4.67521 3.69044 -0.282778
lowerneck -12.8203 -7.01343 -13.8252
upperneck 14.7793 -10.9619 18.593
head 8.5512 -4.71035 7.29826
rclavicle -1.2434e-013 1.74931e-014
rhumerus -30.0658 18.0403 -78.3236
rradius 131.058
rwrist 1.89771
rhand -34.2079 -10.7896
rfingers 7.12502
rthumb -7.3802 -40.6409
lclavicle -1.2434e-013 1.74931e-014
lhumerus -86.4315 -16.9956 93.4235
lradius 79.2736
lwrist -4.10313
lhand -35.3661 14.0055
lfingers 7.12502
lthumb -8.4981 43.8145
rfemur 9.01764 -1.55906 22.4156
rtibia 35.3937
rfoot -140.717 -8.79079
rtoes -26.0959
lfemur -55.541 7.2204 -18.7804
ltibia 66.4159
lfoot -12.0872 -4.55435
ltoes -8.38598
70
root 6.7539 17.3795 23.8414 -164.717 5.04456 -174.701
lowerback 11.6309 5.02139 0.436444
upperback 1.79324 6.95448 0.780313
thorax -4.6527 3.50992 -0.508641
lowerneck -13.0614 -7.00291 -13.7885
upperneck 14.7222 -10.944 18.7112
head 8.58079 -4.68264 7.33096
rclavicle 4.32357e-014 1.23246e-014
rhumerus -32.0426 17.8102 -80.372
rradius 129.547
rwrist 2.60074
rhand -33.5811 -10.3705
rfingers 7.12502
rthumb -6.77522 -40.2421
lclavicle 4.32357e-014 1.23246e-014
lhumerus -84.1268 -16.0546 93.0057
lradius 79.349
lwrist -3.87143
lhand -35.7729 15.0408
lfingers 7.12502
lthumb -8.89068 44.8335
rfemur 7.83864 -1.62887 22.9122
rtibia 38.9734
rfoot -141.368 -9.54543
rtoes -26.2168
lfemur -53.5069 7.60141 -18.5714
ltibia 66.3622
lfoot -14.1679 -4.62504
ltoes -11.6974
71
root 6.75002 17.3481 23.4525 -164.815 4.85511 -174.577
lowerback 11.2839 4.72083 0.550389
upperback 1.7547 6.55157 0.6683
thorax -4.47738 3.30734 -0.594093
lowerneck -13.2946 -6.95909 -13.818
upperneck 14.6176 -10.8499 18.8243
head 8.58255 -4.6225 7.38408
rclavicle 3.39922e-014 -2.34566e-014
rhumerus -34.0765 17.4516 -82.4041
rradius 127.495
rwrist 3.11561
rhand -33.3396 -10.3467
rfingers 7.12502
rthumb -6.54204 -40.2256
lclavicle 3.39922e-014 -2.34566e-014
lhumerus -81.5699 -15.0489 92.6397
lradius 79.1247
lwrist -3.9318
lhand -36.1885 14.9779
lfingers 7.12502
lthumb -9.29164 44.7532
rfemur 6.20551 -1.94013 23.0581
rtibia 43.0573
rfoot -142.631 -9.70112
rtoes -25.7473
lfemur -51.4797 7.87542 -18.5582
ltibia 66.5199
lfoot -16.1999 -5.20412
ltoes -14.4796
72
root 6.74289 17.3096 23.0718 -165.312 4.67401 -174.667
lowerback 11.5626 4.41961 0.614942
upperback 1.74236 6.14756 0.403163
thorax -4.61061 3.10259 -0.868462
lowerneck -13.5153 -6.89629 -13.6213
upperneck 14.5832 -10.798 18.9003
head 8.59736 -4.57664 7.37915
rclavicle -4.06763e-014 3.55328e-015
rhumerus -36.1769 16.4382 -84.599
rradius 125.068
rwrist 3.57346
rhand -33.5689 -10.7611
rfingers 7.12502
rthumb -6.76339 -40.6331
lclavicle -4.06763e-014 3.55328e-015
lhumerus -79.0442 -14.2607 92.3141
lradius 79.3141
lwrist -3.3375
lhand -36.2298 14.9607
lfingers 7.12502
lthumb -9.33152 44.7342
rfemur 4.56474 -2.47154 22.9792
rtibia 47.629
rfoot -144.649 -9.74667
rtoes -24.2863
lfemur -49.1135 7.81791 -18.6025
ltibia 66.4679
lfoot -18.2207 -5.38906
ltoes -15.3308
73
root 6.73077 17.2684 22.7048 -165.586 4.3006 -174.94
lowerback 11.7065 4.00429 0.524666
upperback 1.7158 5.57124 0.17721
thorax -4.71067 2.81542 -0.978335
lowerneck -13.8069 -6.81721 -13.483
upperneck 14.4648 -10.6472 18.8776
head 8.57633 -4.48619 7.35983
rclavicle 3.14328e-014 -2.98177e-016
rhumerus -38.263 15.2735 -86.6278
rradius 122.181
rwrist 4.29846
rhand -33.9408 -11.6377
rfingers 7.12502
rthumb -7.12247 -41.4978
lclavicle 3.14328e-014 -2.98177e-016
lhumerus -76.2635 -13.3942 92.1621
lradius 79.1038
lwrist -4.29746
lhand -36.3238 14.8918
lfingers 7.12502
lthumb -9.42228 44.6612
rfemur 2.1382 -3.53586 22.6171
rtibia 52.7864
rfoot -146.925 -10.0631
rtoes -23.0895
lfemur -47.1091 7.43093 -18.8651
ltibia 66.0592
lfoot -19.8984 -5.43728
ltoes -15.0836
74
root 6.71885 17.2288 22.3414 -166.14 4.16311 -175.892
lowerback 12.1997 3.62378 -0.339747
upperback 1.76915 4.94591 -0.141454
thorax -4.97933 2.51984 -0.767646
lowerneck -14.0512 -6.71658 -13.7284
upperneck 14.2815 -10.4223 19.0815
head 8.54788 -4.36836 7.50291
rclavicle 3.08116e-015 -4.17448e-015
rhumerus -40.1621 13.8395 -88.3463
rradius 118.988
rwrist 4.57952
rhand -34.2247 -12.1619
rfingers 7.12502
rthumb -7.39649 -42.0126
lclavicle 3.08116e-015 -4.17448e-015
lhumerus -73.4159 -12.4433 92.2125
lradius 78.9333
lwrist -5.60154
lhand -36.4626 14.2898
lfingers 7.12502
lthumb -9.55619 44.0531
rfemur -0.458881 -4.57531 21.3439
rtibia 58.3817
rfoot -148.551 -10.1331
rtoes -21.8399
lfemur -44.7093 7.13451 -20.0161
ltibia 65.3339
lfoot -21.388 -5.16352
ltoes -15.8068
